<mxfile host="Electron" modified="2023-08-14T03:31:38.837Z" agent="Mozilla/5.0 (Windows NT 10.0; Win64; x64) AppleWebKit/537.36 (KHTML, like Gecko) draw.io/21.6.8 Chrome/114.0.5735.289 Electron/25.5.0 Safari/537.36" etag="JEZ2YLEs3SeWAWSaCt9e" version="21.6.8" type="device">
  <diagram name="8.5" id="at8uDB8IXHVJr2ERRcrJ">
    <mxGraphModel dx="880" dy="511" grid="1" gridSize="10" guides="1" tooltips="1" connect="1" arrows="1" fold="1" page="1" pageScale="1" pageWidth="1169" pageHeight="827" math="0" shadow="0">
      <root>
        <mxCell id="0" />
        <mxCell id="1" parent="0" />
        <mxCell id="G9axny2knR9kJbHOZU5B-1" value="&lt;b&gt;sd &lt;/b&gt;UserAccepted" style="shape=umlFrame;whiteSpace=wrap;html=1;pointerEvents=0;recursiveResize=0;container=1;collapsible=0;width=160;" parent="1" vertex="1">
          <mxGeometry width="400" height="300" as="geometry" />
        </mxCell>
        <mxCell id="G9axny2knR9kJbHOZU5B-26" value=":User" style="shape=rect;html=1;whiteSpace=wrap;align=center;" parent="G9axny2knR9kJbHOZU5B-1" vertex="1">
          <mxGeometry x="40" y="40" width="100" height="50" as="geometry" />
        </mxCell>
        <mxCell id="G9axny2knR9kJbHOZU5B-27" value="{d..3*d}" style="html=1;shape=mxgraph.sysml.dimension;rotation=-90;verticalAlign=top;spacingTop=-5" parent="G9axny2knR9kJbHOZU5B-1" vertex="1">
          <mxGeometry x="25" y="145" width="90" height="40" as="geometry" />
        </mxCell>
        <mxCell id="G9axny2knR9kJbHOZU5B-28" value="" style="edgeStyle=none;dashed=1;endArrow=none;html=1;rounded=0;" parent="G9axny2knR9kJbHOZU5B-1" source="G9axny2knR9kJbHOZU5B-26" edge="1">
          <mxGeometry relative="1" as="geometry">
            <mxPoint x="90" y="290" as="targetPoint" />
          </mxGeometry>
        </mxCell>
        <mxCell id="G9axny2knR9kJbHOZU5B-29" value="Code d=duration" style="edgeStyle=none;html=1;endArrow=open;verticalAlign=bottom;endSize=12;rounded=0;" parent="G9axny2knR9kJbHOZU5B-1" edge="1">
          <mxGeometry relative="1" as="geometry">
            <mxPoint x="90" y="120" as="sourcePoint" />
            <mxPoint x="290" y="120" as="targetPoint" />
          </mxGeometry>
        </mxCell>
        <mxCell id="G9axny2knR9kJbHOZU5B-30" value="CardOut {0..13}" style="edgeStyle=none;html=1;endArrow=open;verticalAlign=bottom;spacingBottom=5;endSize=12;rounded=0;" parent="G9axny2knR9kJbHOZU5B-1" edge="1">
          <mxGeometry x="0.1" y="-10" relative="1" as="geometry">
            <mxPoint x="90" y="210" as="targetPoint" />
            <mxPoint x="290" y="210" as="sourcePoint" />
            <mxPoint as="offset" />
          </mxGeometry>
        </mxCell>
        <mxCell id="G9axny2knR9kJbHOZU5B-31" value="OK" style="edgeStyle=none;html=1;endArrow=open;verticalAlign=top;spacingTop=5;endSize=12;rounded=0;" parent="G9axny2knR9kJbHOZU5B-1" edge="1">
          <mxGeometry relative="1" as="geometry">
            <mxPoint x="90" y="240" as="targetPoint" />
            <mxPoint x="290" y="180" as="sourcePoint" />
          </mxGeometry>
        </mxCell>
        <mxCell id="G9axny2knR9kJbHOZU5B-32" value=":ACSystem" style="shape=rect;html=1;whiteSpace=wrap;align=center;" parent="G9axny2knR9kJbHOZU5B-1" vertex="1">
          <mxGeometry x="241" y="40" width="100" height="50" as="geometry" />
        </mxCell>
        <mxCell id="G9axny2knR9kJbHOZU5B-33" value="" style="edgeStyle=none;dashed=1;endArrow=none;html=1;rounded=0;" parent="G9axny2knR9kJbHOZU5B-1" source="G9axny2knR9kJbHOZU5B-32" edge="1">
          <mxGeometry relative="1" as="geometry">
            <mxPoint x="291" y="290" as="targetPoint" />
          </mxGeometry>
        </mxCell>
        <mxCell id="G9axny2knR9kJbHOZU5B-43" value="" style="html=1;verticalAlign=bottom;labelBackgroundColor=none;endArrow=open;endFill=0;rounded=0;endSize=12;" parent="G9axny2knR9kJbHOZU5B-1" edge="1">
          <mxGeometry width="160" relative="1" as="geometry">
            <mxPoint x="290" y="260" as="sourcePoint" />
            <mxPoint x="400" y="260" as="targetPoint" />
          </mxGeometry>
        </mxCell>
        <mxCell id="G9axny2knR9kJbHOZU5B-41" value="t=now" style="edgeStyle=none;html=1;endArrow=none;align=left;labelBackgroundColor=none;rounded=0;" parent="1" edge="1">
          <mxGeometry x="-1" relative="1" as="geometry">
            <mxPoint x="290" y="210" as="targetPoint" />
            <mxPoint x="310" y="210" as="sourcePoint" />
          </mxGeometry>
        </mxCell>
        <mxCell id="G9axny2knR9kJbHOZU5B-42" value="{t..t+3}" style="edgeStyle=none;html=1;endArrow=none;align=right;labelBackgroundColor=none;rounded=0;" parent="1" edge="1">
          <mxGeometry x="-1" relative="1" as="geometry">
            <mxPoint x="90" y="240" as="targetPoint" />
            <mxPoint x="70" y="240" as="sourcePoint" />
          </mxGeometry>
        </mxCell>
        <mxCell id="G9axny2knR9kJbHOZU5B-44" value="Unlock" style="text;html=1;align=center;verticalAlign=middle;resizable=0;points=[];autosize=1;strokeColor=none;fillColor=none;" parent="1" vertex="1">
          <mxGeometry x="306" y="230" width="60" height="30" as="geometry" />
        </mxCell>
        <mxCell id="L9GJ1y1zHlUi7mJ8IImP-1" value="&lt;b&gt;Figure 8.5 Example of DurationConstraints and TimeConstraints&lt;/b&gt;" style="text;html=1;align=left;verticalAlign=middle;resizable=0;points=[];autosize=1;strokeColor=none;fillColor=none;fontSize=11;fontFamily=Helvetica;fontColor=default;" vertex="1" parent="1">
          <mxGeometry y="300" width="360" height="30" as="geometry" />
        </mxCell>
      </root>
    </mxGraphModel>
  </diagram>
</mxfile>
